<?xml version="1.0" encoding="UTF-8" standalone="no"?>
<!-- Created with Inkscape (http://www.inkscape.org/) -->

<svg
   width="25.785805mm"
   height="6.514533mm"
   viewBox="0 0 25.785805 6.514533"
   version="1.1"
   id="svg1"
   xmlns="http://www.w3.org/2000/svg"
   xmlns:svg="http://www.w3.org/2000/svg">
  <defs
     id="defs1" />
  <g
     id="layer1"
     transform="translate(-52.891861,25.163425)">
    <ellipse
       style="fill:#ff4500;fill-opacity:1;stroke:none;stroke-width:0.001;stroke-dasharray:none;stroke-opacity:1"
       id="path23"
       cx="56.413074"
       cy="-21.953686"
       rx="3.21"
       ry="3.2097399" />
    <text
       xml:space="preserve"
       style="font-style:normal;font-variant:normal;font-weight:normal;font-stretch:normal;font-size:5.32286px;font-family:Poppins;-inkscape-font-specification:'Poppins, Normal';font-variant-ligatures:normal;font-variant-caps:normal;font-variant-numeric:normal;font-variant-east-asian:normal;text-align:start;writing-mode:lr-tb;direction:ltr;text-anchor:start;fill:#000000;stroke-width:0.443571"
       x="60.186062"
       y="-19.086729"
       id="text1"><tspan
         id="tspan1"
         style="font-style:normal;font-variant:normal;font-weight:600;font-stretch:normal;font-size:5.32286px;font-family:Poppins;-inkscape-font-specification:'Poppins, Semi-Bold';font-variant-ligatures:normal;font-variant-caps:normal;font-variant-numeric:normal;font-variant-east-asian:normal;fill:#ffffff;fill-opacity:1;stroke-width:0.443571"
         x="60.186062"
         y="-19.086729">shiddit</tspan></text>
    <path
       style="fill:#000000;fill-opacity:1;stroke:#000000;stroke-width:0.0360486;stroke-dasharray:none;stroke-opacity:1"
       d="m 56.576559,-23.998344 c 0.170039,0.354933 -0.867864,0.953445 -0.0049,1.922326 0.01623,0.01822 0.166606,0.212822 0.18186,0.232767 -0.917032,-0.885953 -0.58139,-1.232091 -0.176924,-2.15509 z"
       id="path4" />
    <g
       id="g3"
       transform="translate(0.33174249,1.1761779)">
      <path
         style="fill:#000000;fill-opacity:1;stroke:#000000;stroke-width:0.0317969;stroke-dasharray:none;stroke-opacity:1"
         d="m 54.809422,-25.017959 c -0.04747,0.06646 0.02932,0.187375 0.03807,0.4186 0.0063,0.166687 -0.05481,0.387859 -0.04298,0.655011 0.01144,0.260077 0.06819,0.574159 0.110731,0.933951 0.05717,-0.277636 -0.06469,-0.669817 -0.06069,-0.937966 0.0062,-0.409133 0.09966,-0.687385 -0.04513,-1.069598 z"
         id="path6-8-6-6-9" />
      <ellipse
         style="fill:#ffffff;fill-opacity:1;stroke:none;stroke-width:0.02;stroke-dasharray:none;stroke-opacity:1"
         id="path3"
         cx="56.004162"
         cy="-23.508478"
         rx="1.0555443"
         ry="0.67856413" />
      <ellipse
         style="fill:#ffffff;fill-opacity:1;stroke:none;stroke-width:0.0270551;stroke-dasharray:none;stroke-opacity:1"
         id="ellipse3"
         cx="56.019238"
         cy="-22.844994"
         rx="1.9416897"
         ry="0.67503655" />
      <ellipse
         style="fill:#ffffff;fill-opacity:1;stroke:none;stroke-width:0.0321568;stroke-dasharray:none;stroke-opacity:1"
         id="ellipse4"
         cx="56.079556"
         cy="-22.000559"
         rx="2.7066436"
         ry="0.67248571" />
      <path
         style="fill:#000000;fill-opacity:1;stroke:#000000;stroke-width:0.0324196;stroke-dasharray:none;stroke-opacity:1"
         d="m 57.433381,-24.439817 c -0.05952,0.05824 -0.004,0.193329 -0.03652,0.427001 -0.02336,0.168463 -0.11302,0.38129 -0.160099,0.649845 -0.133306,0.760293 -0.05595,0.699211 -0.0556,0.957298 0.106962,-0.268492 0.05467,-0.683931 0.106555,-0.952394 0.07925,-0.409595 0.222777,-0.672222 0.145674,-1.081752 z"
         id="path21" />
    </g>
    <ellipse
       style="fill:#ffffff;fill-opacity:1;stroke:none;stroke-width:0.0330962;stroke-dasharray:none;stroke-opacity:1"
       id="path5"
       cx="57.827393"
       cy="21.340273"
       rx="0.43536812"
       ry="0.44020551"
       transform="rotate(-43.236922)" />
    <path
       style="fill:#000000;fill-opacity:1;stroke:#000000;stroke-width:0.0366168;stroke-dasharray:none;stroke-opacity:1"
       d="m 55.766214,-22.852194 c -0.05467,0.07654 0.03377,0.215779 0.04384,0.482053 0.0073,0.191954 -0.06312,0.446652 -0.0495,0.754299 0.01318,0.299501 0.07852,0.661193 0.127516,1.075523 0.06584,-0.319721 -0.07449,-0.77135 -0.06989,-1.080146 0.0071,-0.47115 0.114767,-0.791581 -0.05197,-1.231731 z"
       id="path6" />
    <ellipse
       style="fill:#000000;fill-opacity:1;stroke:#000000;stroke-width:0.0318922;stroke-dasharray:none;stroke-opacity:1"
       id="path7"
       cx="58.135166"
       cy="-22.405191"
       rx="0.2010646"
       ry="0.15491863" />
    <ellipse
       style="fill:#ffffff;fill-opacity:1;stroke:#f6ffff;stroke-width:0.0507939;stroke-dasharray:none;stroke-opacity:1"
       id="path9"
       cx="58.269039"
       cy="-22.551973"
       rx="0.086619906"
       ry="0.074808098" />
    <ellipse
       style="fill:#ffffff;fill-opacity:1;stroke:#f6ffff;stroke-width:0.0507939;stroke-dasharray:none;stroke-opacity:1"
       id="ellipse9"
       cx="58.072174"
       cy="-22.570347"
       rx="0.086619906"
       ry="0.074808098" />
    <ellipse
       style="fill:#000000;fill-opacity:1;stroke:#000000;stroke-width:0.0326024;stroke-dasharray:none;stroke-opacity:1"
       id="ellipse10"
       cx="-54.378735"
       cy="-22.986174"
       rx="0.19226837"
       ry="0.16930471"
       transform="scale(-1,1)" />
    <ellipse
       style="fill:#ffffff;fill-opacity:1;stroke:#f6ffff;stroke-width:0.0519252;stroke-dasharray:none;stroke-opacity:1"
       id="ellipse11"
       cx="-54.250725"
       cy="-23.146582"
       rx="0.082830429"
       ry="0.081754938"
       transform="scale(-1,1)" />
    <ellipse
       style="fill:#ffffff;fill-opacity:1;stroke:#f6ffff;stroke-width:0.0519252;stroke-dasharray:none;stroke-opacity:1"
       id="ellipse12"
       cx="-54.438972"
       cy="-23.166666"
       rx="0.082830429"
       ry="0.081754938"
       transform="scale(-1,1)" />
    <path
       style="fill:#000000;fill-opacity:1;stroke:#000000;stroke-width:0.0313154;stroke-dasharray:none;stroke-opacity:1"
       d="m 56.996752,-22.656345 c -0.05486,0.05883 0.0047,0.186727 -0.01638,0.41364 -0.01518,0.163577 -0.10315,0.371736 -0.125781,0.634126 -0.0221,0.255432 -0.0069,0.569398 -0.01137,0.926182 0.09135,-0.263801 0.02253,-0.662361 0.06075,-0.9237 0.0584,-0.39873 0.185271,-0.658487 0.09278,-1.05025 z"
       id="path19" />
    <path
       style="fill:#ff4500;fill-opacity:1;stroke:none;stroke-width:0.001;stroke-dasharray:none;stroke-opacity:1"
       d="m 52.891861,-18.785417 c 2.381754,0.484665 3.974707,-0.396642 5.465299,-1.455208 l -4.299479,-0.14056 c 0.288642,0.826378 -0.471319,1.196843 -1.16582,1.595768 z"
       id="path42" />
  </g>
</svg>
